<?xml version="1.0" standalone="no"?>
<!DOCTYPE svg PUBLIC "-//W3C//DTD SVG 20010904//EN"
 "http://www.w3.org/TR/2001/REC-SVG-20010904/DTD/svg10.dtd">
<svg version="1.0" xmlns="http://www.w3.org/2000/svg"
 width="500.000000pt" height="500.000000pt" viewBox="0 0 500.000000 500.000000"
 preserveAspectRatio="xMidYMid meet">
<g transform="translate(0.000000,500.000000) scale(0.100000,-0.100000)"
fill="#0033ff" stroke="none">
<path d="M2064 3588 c-7 -11 -3 -11 91 -8 70 2 83 -1 99 -19 11 -12 26 -21 35
-20 14 0 14 1 1 6 -8 3 -24 13 -35 23 -14 13 -43 19 -103 22 -46 3 -85 1 -88
-4z"/>
<path d="M2980 3563 c-92 -3 -96 -4 -121 -33 -26 -30 -26 -30 -233 -32 -207
-1 -207 -1 -235 26 -20 19 -36 26 -52 23 -23 -4 -23 -4 2 -6 23 -1 59 -28 59
-43 0 -4 -44 -6 -98 -6 -54 1 -108 -2 -120 -6 -21 -7 -37 -42 -34 -78 1 -24
-35 -23 -56 1 -10 10 -34 22 -54 25 -31 6 -38 4 -38 -9 0 -13 6 -15 31 -10 23
5 36 2 52 -13 12 -11 31 -22 42 -24 16 -3 20 -12 21 -44 0 -22 4 -52 8 -67 6
-24 3 -27 -34 -37 -22 -6 -40 -13 -40 -16 0 -4 7 -4 15 0 8 3 15 1 15 -5 0 -6
-10 -9 -22 -8 -30 3 -53 -7 -113 -49 -169 -119 -294 -280 -357 -462 -78 -225
-62 -485 44 -695 64 -128 154 -238 257 -315 33 -25 34 -27 21 -64 -11 -34 -10
-40 14 -76 33 -51 79 -84 157 -117 54 -22 80 -26 164 -26 124 -1 228 25 375
93 58 26 135 60 172 74 305 116 529 438 545 783 13 266 -76 502 -258 685 -48
49 -83 91 -77 94 6 4 14 0 19 -7 6 -9 9 -10 9 -2 0 17 -19 26 -33 15 -14 -11
-48 -12 -42 -2 4 7 -48 50 -60 50 -3 0 -23 11 -45 25 -32 20 -52 25 -107 25
-64 -1 -67 -2 -43 -15 25 -14 25 -14 3 -15 -14 0 -23 -6 -23 -16 0 -13 8 -15
48 -10 70 9 94 9 101 -1 3 -5 39 -31 80 -58 92 -62 185 -152 238 -230 162
-242 192 -550 81 -825 -79 -193 -250 -369 -442 -454 -70 -31 -66 -30 -66 -8 1
11 29 31 89 60 200 97 352 278 416 497 68 229 31 498 -93 689 -58 89 -174 206
-245 246 -31 17 -63 42 -71 55 -9 14 -23 25 -32 25 -13 0 -12 -6 6 -35 17 -27
18 -35 7 -35 -8 0 -20 7 -27 15 -13 16 -57 20 -76 7 -7 -4 -9 -21 -7 -40 4
-24 10 -31 22 -28 53 15 81 17 81 6 0 -7 9 -24 20 -40 11 -15 22 -53 26 -84 7
-56 7 -56 -20 -56 -14 0 -26 5 -26 10 0 6 -5 10 -11 10 -5 0 -8 -4 -5 -9 3 -5
-15 -4 -40 1 -36 8 -50 7 -69 -6 -35 -23 -48 -53 -42 -99 6 -47 31 -83 77
-114 33 -23 33 -23 3 -23 -16 0 -34 -5 -39 -10 -6 -6 -30 -12 -52 -13 -36 -1
-42 -4 -42 -23 0 -31 -21 -49 -74 -64 -39 -11 -49 -10 -70 3 -21 14 -24 25
-28 87 -2 39 -8 74 -13 78 -15 10 -105 194 -105 214 0 27 11 48 22 42 5 -3 29
1 53 10 37 15 43 21 47 50 4 34 4 34 -52 13 -52 -18 -57 -23 -69 -63 -7 -24
-17 -44 -21 -44 -18 0 -31 30 -24 56 6 25 8 26 20 9 12 -16 12 -14 8 17 -7 40
1 48 68 73 34 13 51 15 60 7 10 -8 12 5 10 64 -3 67 -5 74 -25 74 -28 0 -57
-28 -49 -48 3 -10 16 -28 29 -42 27 -30 21 -40 -9 -14 -12 10 -18 13 -14 7 4
-7 2 -14 -3 -14 -6 -1 -14 -2 -18 -3 -16 -3 -83 -48 -84 -57 -1 -5 -2 -12 -4
-16 -1 -5 -5 -24 -9 -44 -7 -34 -10 -36 -45 -35 -26 0 -54 -9 -87 -30 -43 -26
-51 -37 -64 -82 -13 -46 -18 -52 -36 -48 -24 6 -87 -38 -116 -82 -25 -38 -16
-188 16 -257 13 -27 27 -72 31 -99 11 -80 43 -168 81 -223 36 -52 36 -52 21
-112 -12 -45 -13 -67 -5 -88 9 -24 6 -38 -16 -86 -14 -32 -26 -62 -26 -68 0
-16 -17 -7 -68 36 -63 52 -103 100 -105 123 -1 14 -7 18 -22 14 -16 -4 -18 -2
-8 8 9 10 7 19 -9 40 -29 39 -70 138 -75 183 -3 20 -11 37 -17 37 -10 0 -12
24 -8 96 3 70 1 95 -7 90 -13 -9 -15 16 -2 30 5 5 11 18 13 29 1 11 8 23 13
27 6 5 5 8 -2 8 -9 0 -10 7 -3 26 7 17 7 39 1 63 -9 33 -9 34 4 17 14 -19 15
-19 15 5 0 14 8 34 18 45 26 30 28 53 3 30 -12 -11 -21 -14 -21 -9 0 6 7 16
16 24 8 7 22 25 30 41 8 16 19 26 25 23 5 -4 9 -3 8 2 -4 15 21 64 56 110 19
25 35 43 35 39 0 -4 12 7 28 25 15 18 26 36 25 39 -1 3 9 10 23 17 18 8 22 8
18 0 -4 -7 7 2 25 19 17 17 45 37 61 44 17 7 30 17 30 22 0 7 4 7 13 0 6 -6
14 -10 17 -11 3 0 13 -3 22 -6 9 -4 25 -2 35 5 15 10 14 10 -10 5 -20 -4 -29
-1 -34 11 -7 18 16 37 32 25 22 -16 81 -12 99 8 10 11 31 23 47 26 16 4 29 13
29 20 0 10 -9 11 -37 4 -29 -6 -41 -5 -48 5 -9 12 -19 11 -62 -4 -262 -92
-464 -317 -533 -595 -20 -78 -22 -107 -17 -220 6 -152 22 -217 82 -340 70
-142 206 -293 239 -266 11 9 12 6 7 -19 -3 -17 -9 -32 -13 -33 -13 -3 -116 84
-151 127 -139 170 -203 353 -201 571 2 181 43 312 148 474 96 150 299 303 451
341 30 8 30 8 -2 9 -44 1 -53 23 -53 123 0 139 -37 128 419 128 458 0 421 11
421 -121 0 -99 -10 -118 -66 -130 -39 -8 -39 -8 6 -4 50 4 70 24 70 68 0 29 0
29 67 25 43 -2 68 1 70 8 5 14 -24 26 -32 14 -4 -6 -28 -10 -56 -10 -49 0 -49
0 -49 45 0 45 0 45 39 45 37 0 39 2 46 36 7 38 3 50 -14 40 -6 -4 -8 -20 -4
-36 5 -29 4 -30 -29 -30 -27 0 -37 5 -46 25 -15 32 -44 43 -104 39 -53 -3 -56
0 -28 35 19 22 25 23 125 19 80 -3 105 -1 105 9 0 7 -6 12 -12 11 -7 -1 -56
-3 -108 -5z m-172 -471 c2 -6 -1 -12 -7 -12 -6 0 -11 4 -11 9 0 6 -9 8 -20 6
-11 -2 -22 0 -25 6 -4 5 8 8 26 6 18 -1 34 -8 37 -15z m44 -37 c10 -40 3 -43
-16 -6 -19 36 -20 44 -4 39 7 -3 15 -17 20 -33z m79 -29 c4 -5 16 -6 28 -3 12
3 19 1 16 -4 -4 -5 14 -29 39 -53 26 -24 46 -50 46 -56 0 -7 7 -10 16 -6 11 4
15 2 11 -7 -3 -8 6 -26 19 -40 13 -14 24 -31 24 -37 0 -5 7 -10 15 -10 11 0
14 -7 11 -26 -3 -15 -2 -24 1 -20 8 7 43 -59 43 -81 0 -10 7 -31 15 -46 10
-19 10 -26 2 -21 -7 3 -1 -4 13 -15 20 -16 21 -21 8 -21 -16 0 -16 -3 -2 -37
17 -39 26 -253 11 -253 -5 0 -7 -8 -6 -17 1 -10 -3 -38 -11 -63 -7 -25 -13
-52 -14 -60 -1 -8 -11 -37 -24 -64 -12 -26 -19 -53 -15 -59 4 -6 -2 -8 -14 -5
-17 5 -21 1 -18 -18 1 -13 -2 -21 -6 -18 -5 3 -9 -1 -9 -8 -1 -15 -85 -130
-95 -128 -12 2 -36 -30 -30 -40 3 -5 -2 -10 -12 -10 -10 0 -33 -13 -51 -29
-17 -17 -32 -27 -32 -24 0 3 -8 -4 -19 -15 -10 -12 -21 -19 -25 -15 -3 3 -6
-1 -6 -10 0 -19 -16 -23 -22 -6 -3 8 -10 6 -20 -5 -9 -9 -28 -20 -42 -26 -23
-8 -26 -7 -27 13 0 29 -8 131 -13 188 -3 31 0 53 9 65 17 22 19 82 5 119 -9
24 -4 31 62 93 39 37 96 99 126 137 31 39 59 72 63 75 3 3 18 23 33 44 26 39
26 39 20 210 -3 94 -10 183 -16 198 -13 34 -48 58 -93 61 -19 2 -37 6 -40 9
-3 3 -8 41 -11 84 -3 44 -7 85 -10 93 -3 10 2 9 18 -5 13 -10 26 -23 29 -28z
m-511 -6 c0 -11 -32 -30 -61 -35 -33 -7 -21 24 14 34 43 12 47 13 47 1z m-184
-101 c44 -27 44 -42 0 -34 -26 5 -43 1 -75 -19 -22 -15 -40 -30 -40 -34 1 -4
-2 -21 -6 -39 -6 -28 -9 -30 -26 -20 -20 12 -27 57 -9 57 6 0 10 -7 10 -15 0
-8 5 -15 10 -15 6 0 4 13 -5 29 -20 40 -13 54 43 83 59 32 58 32 98 7z m4 -57
c0 -4 -17 -17 -39 -29 -29 -17 -41 -19 -50 -10 -9 9 -1 17 31 33 40 21 58 22
58 6z m62 -30 c9 -15 34 -56 57 -92 38 -61 51 -100 33 -100 -4 0 -13 5 -19 11
-9 9 -22 8 -53 -5 -49 -19 -50 -20 -50 -2 0 8 12 17 28 21 15 4 22 9 15 12
-22 8 -55 -17 -50 -38 3 -10 2 -21 -3 -24 -4 -3 -10 -14 -13 -25 -4 -14 0 -20
12 -20 11 0 17 7 17 20 -1 15 11 26 41 40 38 17 43 17 55 3 8 -10 9 -18 3 -20
-5 -2 -28 -12 -50 -23 -36 -18 -37 -20 -10 -15 30 5 30 5 5 -9 -53 -31 -101 2
-161 110 -43 78 -50 106 -22 83 15 -13 15 -12 4 9 -7 13 -11 25 -9 26 2 1 26
9 53 19 28 9 56 26 63 37 17 23 32 18 54 -18z m432 3 c8 -42 48 -75 91 -75 37
0 47 16 38 60 -5 30 -5 30 51 30 69 0 76 -11 52 -86 -9 -30 -14 -58 -11 -64
10 -16 -87 -52 -128 -47 -107 14 -188 138 -135 205 18 22 36 13 42 -23z m71
19 c36 -8 45 -20 45 -58 0 -27 -2 -28 -32 -22 -40 8 -64 31 -74 70 -6 24 -4
27 12 23 11 -4 33 -9 49 -13z m215 -62 c0 -24 -37 -82 -52 -82 -10 0 -10 2 0
9 8 4 13 10 12 12 -1 2 3 23 10 46 13 41 30 50 30 15z m-960 -43 c25 -20 25
-20 -6 -14 -40 8 -94 -34 -94 -72 0 -25 0 -26 -20 -8 -23 20 -27 10 -6 -14 7
-9 16 -31 20 -50 5 -30 4 -32 -11 -20 -15 13 -15 12 -5 -7 6 -11 18 -26 26
-34 21 -16 20 -28 -1 -32 -13 -2 -7 -10 22 -27 40 -24 40 -24 15 -32 -22 -6
-23 -7 -4 -8 13 -1 24 -9 27 -21 3 -10 27 -33 53 -50 40 -26 55 -30 84 -25 19
4 42 7 50 7 8 1 26 9 39 19 23 19 24 18 62 -12 44 -35 79 -76 79 -94 0 -7 9
-10 24 -8 19 4 25 0 30 -24 4 -15 18 -45 32 -65 13 -21 24 -39 24 -41 0 -3
-17 -4 -38 -4 -20 0 -73 -12 -116 -27 -88 -29 -172 -34 -215 -11 -32 16 -95
99 -122 160 -10 23 -25 77 -32 121 -8 43 -25 99 -38 123 -18 36 -24 63 -25
132 -2 88 -2 88 41 128 46 43 62 44 105 10z m961 -182 c-6 -6 -29 -13 -52 -16
-39 -6 -43 -10 -58 -48 -8 -24 -18 -43 -21 -43 -12 1 -52 41 -54 55 -1 8 -12
25 -25 38 -33 36 -21 75 23 75 18 0 52 9 74 20 42 20 42 20 44 -26 1 -47 1
-47 7 3 4 35 15 62 36 88 30 37 30 37 33 -50 2 -49 -2 -91 -7 -96z m-1000 122
c-26 -24 -35 -28 -42 -18 -10 17 27 49 56 48 17 0 15 -4 -14 -30z m123 -41
c25 -31 46 -61 46 -67 0 -6 5 -11 11 -11 5 0 8 -4 5 -9 -4 -5 -2 -11 2 -13 5
-1 12 -33 16 -70 6 -61 4 -69 -16 -88 -47 -44 -114 -33 -149 24 -25 41 -25 71
-1 61 9 -4 27 -7 40 -6 46 2 124 59 94 68 -6 3 -10 9 -6 14 3 5 -2 17 -11 26
-16 15 -19 15 -53 -3 -19 -10 -44 -34 -55 -52 -19 -32 -20 -33 -46 -16 -41 27
-50 45 -51 97 0 49 0 49 43 42 56 -9 70 -21 56 -47 -6 -11 -8 -22 -5 -26 3 -3
6 0 6 6 0 7 3 11 8 11 26 -4 33 1 20 17 -38 46 -47 52 -70 47 -20 -5 -19 -2
12 29 19 20 40 33 46 29 7 -3 33 -32 58 -63z m623 -26 c1 -12 -6 -17 -27 -17
-28 -1 -28 0 -12 16 22 23 37 23 39 1z m-357 -66 c0 -83 -8 -97 -65 -116 -67
-22 -97 -2 -108 72 -5 36 -5 36 27 31 22 -3 49 2 80 15 37 17 46 26 46 46 0
14 5 26 10 26 6 0 10 -31 10 -74z m-235 5 c6 -11 -62 -61 -82 -61 -7 0 -13 7
-13 15 0 19 46 49 61 39 8 -4 9 -3 5 4 -4 7 -1 12 8 12 8 0 17 -4 21 -9z m555
-3 c0 -6 7 -20 17 -30 15 -17 15 -19 -1 -36 -15 -17 -15 -21 0 -51 9 -18 14
-33 13 -34 -97 -55 -181 -129 -165 -145 3 -3 6 1 6 9 0 9 8 5 21 -11 21 -25
21 -25 5 2 -9 15 -16 29 -16 31 0 3 17 16 39 30 38 26 38 26 60 -4 12 -16 26
-29 31 -29 5 0 -2 11 -15 25 -33 32 -32 42 11 67 29 17 34 25 29 42 -12 36
-11 71 3 70 6 -1 25 -2 41 -2 23 -2 36 -12 60 -49 38 -56 57 -121 43 -143 -5
-8 -25 -15 -46 -16 -41 -1 -42 -1 -19 17 11 10 14 10 9 2 -12 -20 9 -15 29 7
10 11 15 23 12 27 -4 3 -7 0 -7 -8 -1 -11 -3 -11 -13 2 -10 14 -16 11 -42 -24
-16 -22 -45 -55 -63 -75 -22 -23 -30 -38 -23 -45 13 -13 64 20 55 35 -4 6 -3
8 3 5 5 -3 17 3 27 14 17 20 17 21 -3 14 -12 -4 -21 -2 -21 4 0 6 16 11 35 11
19 0 35 -4 35 -8 0 -11 -117 -123 -152 -146 -15 -10 -40 -17 -55 -15 -15 1
-35 -1 -43 -5 -8 -3 -40 2 -70 11 -72 24 -100 68 -100 163 0 85 35 155 108
219 67 59 162 99 162 69z m34 -4 c11 -28 6 -39 -9 -20 -8 11 -15 23 -15 28 0
14 18 9 24 -8z m46 -37 c0 -20 -25 1 -28 24 -2 23 -2 23 13 5 8 -11 15 -24 15
-29z m220 -25 c0 -55 -2 -60 -50 -112 -43 -47 -50 -51 -56 -34 -3 10 -12 36
-20 57 -19 51 -8 47 16 -5 11 -24 20 -35 20 -25 0 10 -7 32 -16 49 -14 26 -14
38 -4 71 9 30 14 37 21 26 7 -11 9 -11 9 3 0 11 10 18 33 21 17 2 35 5 40 5 4
1 7 -24 7 -56z m-850 33 c0 -12 -67 -45 -90 -44 -18 0 -11 5 22 15 26 8 50 19
53 24 7 11 15 13 15 5z m324 -30 c-4 -8 -10 -13 -14 -10 -5 3 -12 0 -16 -6 -4
-7 -3 -9 4 -5 22 13 19 -10 -7 -62 -26 -52 -27 -53 -45 -33 -14 16 -16 23 -6
41 8 15 8 20 1 16 -6 -4 -11 -2 -11 3 0 6 4 11 10 11 5 0 6 7 3 17 -4 11 -3
14 5 9 7 -4 12 -1 12 9 0 9 4 14 9 11 5 -4 20 -2 33 3 12 6 24 10 25 10 1 1 0
-6 -3 -14z m-102 -86 c-1 -9 7 -24 18 -34 20 -18 28 -75 11 -75 -5 0 -18 10
-28 23 -10 12 -27 29 -38 37 -24 17 32 -48 58 -68 9 -7 17 -17 17 -23 0 -21
-27 -6 -69 40 -25 26 -53 51 -61 55 -11 4 -12 7 -2 12 6 3 9 11 5 17 -4 7 1 6
10 -2 16 -12 17 -12 10 5 -6 17 -5 18 12 4 11 -9 16 -10 11 -2 -4 7 -1 12 9
12 9 0 13 5 9 11 -4 7 1 9 12 7 11 -2 18 -11 16 -19z m378 -203 c0 -3 -4 -8
-10 -11 -5 -3 -10 -1 -10 4 0 6 5 11 10 11 6 0 10 -2 10 -4z m-290 -109 c30 8
72 -5 64 -20 -5 -9 -4 -9 7 1 16 14 33 16 24 2 -4 -7 12 -9 44 -6 28 3 51 1
51 -4 0 -9 -114 -46 -195 -62 -30 -6 -52 -15 -49 -19 3 -5 0 -9 -6 -9 -6 0 -8
-4 -5 -10 3 -5 -1 -10 -9 -10 -9 0 -16 7 -16 15 0 8 -10 17 -22 19 -13 3 -52
11 -88 19 -65 15 -65 15 -15 16 37 1 57 7 75 24 14 12 33 22 43 23 50 2 71 6
58 11 -11 5 -11 7 0 14 8 5 15 4 17 0 2 -5 12 -7 22 -4z m-351 -51 c62 -39
111 -57 179 -63 72 -7 69 10 31 -183 -17 -87 -17 -95 -2 -112 13 -15 15 -31 9
-90 -12 -141 -18 -168 -33 -168 -11 0 -13 7 -9 23 12 49 37 220 32 224 -3 3
-7 -10 -11 -28 -40 -221 -40 -224 -61 -221 -10 2 -30 3 -43 3 -13 -1 -42 4
-63 10 -34 9 -39 13 -34 32 8 27 39 160 60 251 15 66 15 69 -6 100 -11 17 -46
56 -76 87 -44 47 -53 61 -47 80 10 37 27 79 31 79 3 0 22 -11 43 -24z m201 20
c0 -2 -8 -10 -17 -17 -16 -13 -17 -12 -4 4 13 16 21 21 21 13z m388 -67 c-3
-40 -7 -46 -56 -79 -62 -42 -69 -60 -70 -191 0 -94 0 -94 14 21 12 106 15 117
41 137 41 33 65 28 26 -5 -34 -30 -38 -42 -48 -160 -6 -68 -5 -81 11 -97 23
-23 30 -75 12 -86 -18 -12 -31 -11 -23 0 3 5 0 13 -6 17 -7 4 -10 3 -6 -2 3
-5 -1 -20 -9 -34 -13 -24 -13 -22 -15 35 -2 45 -3 50 -6 20 -5 -56 -12 -85
-21 -83 -4 1 -20 -4 -35 -10 -16 -7 -33 -12 -38 -12 -5 0 -17 -4 -27 -9 -21
-12 -113 -33 -118 -28 -6 5 25 227 33 247 4 8 18 78 33 154 26 139 26 139 125
166 55 15 116 33 135 42 19 8 39 12 43 8 5 -4 7 -27 5 -51z m-582 -164 c-1 -5
-23 -85 -47 -177 -24 -93 -46 -168 -50 -168 -3 0 -25 20 -47 44 -41 45 -41 45
-27 93 39 127 91 253 101 243 8 -8 8 -25 1 -55 -8 -33 -7 -52 2 -71 6 -15 14
-24 18 -21 3 4 0 14 -7 22 -11 13 -11 25 -1 66 12 44 11 52 -4 69 -9 10 -14
24 -10 31 9 13 76 -59 71 -76z m269 55 c-3 -5 -14 -10 -23 -10 -15 0 -15 2 -2
10 20 13 33 13 25 0z m300 -164 c7 -154 5 -176 -18 -176 -9 0 -13 44 -15 156
-1 85 0 159 3 164 17 27 23 -3 30 -144z m-315 90 c0 -3 -4 -8 -10 -11 -5 -3
-10 -1 -10 4 0 6 5 11 10 11 6 0 10 -2 10 -4z m-259 -179 c1 -32 1 -32 14 8
14 39 14 39 8 5 -3 -19 -12 -53 -19 -75 -13 -39 -13 -40 -8 -5 3 23 2 30 -4
22 -7 -10 -11 -5 -16 20 -4 18 -2 34 3 36 6 2 7 10 4 19 -4 11 -2 14 5 9 7 -4
12 -22 13 -39z m-25 -80 c2 -7 6 -23 9 -37 4 -20 4 -21 -3 -6 -8 19 -9 18 -16
-5 -7 -24 -7 -24 -16 -2 -6 14 -5 30 3 47 12 25 19 26 23 3z m1 -89 c-3 -8 -6
-5 -6 6 -1 11 2 17 5 13 3 -3 4 -12 1 -19z"/>
<path d="M2206 2784 c4 -18 1 -34 -5 -38 -6 -4 -11 -15 -10 -24 0 -14 2 -14 6
-2 3 8 11 22 19 30 10 12 10 20 -2 40 -14 25 -14 25 -8 -6z"/>
<path d="M2150 2734 c0 -11 59 -124 65 -124 2 0 -7 26 -21 58 -26 58 -44 85
-44 66z"/>
<path d="M2240 2710 c0 -5 5 -10 10 -10 6 0 10 5 10 10 0 6 -4 10 -10 10 -5 0
-10 -4 -10 -10z"/>
<path d="M2695 2827 c-27 -65 87 -169 166 -152 39 9 36 20 -5 22 -74 3 -131
49 -146 118 -6 24 -9 27 -15 12z"/>
<path d="M2223 2330 c-18 -11 -33 -22 -33 -25 0 -8 58 23 65 35 9 14 5 13 -32
-10z"/>
<path d="M2010 2325 c0 -6 7 -20 15 -31 8 -12 12 -24 9 -27 -10 -9 38 -96 78
-142 25 -28 48 -45 61 -45 18 1 16 4 -13 19 -19 11 -33 21 -30 24 3 3 -10 22
-27 42 -38 43 -44 59 -10 27 13 -12 27 -19 31 -15 4 4 4 0 1 -8 -4 -11 7 -24
33 -42 21 -15 42 -27 47 -27 4 0 -7 10 -26 23 -19 12 -33 27 -32 32 2 15 -18
36 -28 29 -5 -3 -10 0 -10 5 -1 6 -2 15 -3 19 0 5 -8 16 -17 25 -13 12 -19 13
-29 4 -10 -10 -12 -8 -7 6 4 11 3 16 -4 12 -6 -4 -9 -1 -8 6 2 8 -4 28 -14 44
-9 17 -16 25 -17 20z"/>
<path d="M2130 2310 c0 -5 12 -10 28 -9 24 0 25 1 7 9 -27 12 -35 12 -35 0z"/>
<path d="M2305 2300 c20 -23 29 -21 19 4 -3 9 -13 16 -22 16 -13 0 -12 -3 3
-20z"/>
<path d="M2187 2279 c7 -7 15 -10 18 -7 3 3 -2 9 -12 12 -14 6 -15 5 -6 -5z"/>
<path d="M2343 2165 c0 -33 2 -45 4 -27 2 18 2 45 0 60 -2 15 -4 0 -4 -33z"/>
<path d="M2401 2185 c0 -16 4 -37 9 -45 8 -12 10 -11 9 5 -1 11 -5 31 -9 45
-8 24 -8 24 -9 -5z"/>
<path d="M2258 2103 c7 -3 16 -2 19 1 4 3 -2 6 -13 5 -11 0 -14 -3 -6 -6z"/>
<path d="M2820 2570 c0 -4 14 -13 31 -19 39 -13 42 -14 35 -2 -8 13 -66 32
-66 21z"/>
<path d="M2010 2596 c0 -2 8 -10 18 -17 15 -13 16 -12 3 4 -13 16 -21 21 -21
13z"/>
<path d="M1980 2582 c0 -7 14 -26 31 -44 31 -33 31 -33 3 7 -16 22 -29 42 -31
44 -2 2 -3 -1 -3 -7z"/>
<path d="M2194 2463 c1 -19 5 -28 10 -23 6 6 5 18 -1 32 -10 21 -10 21 -9 -9z"/>
<path d="M2089 2448 c0 -2 -2 -11 -4 -21 -3 -15 -1 -16 11 -6 7 6 11 15 8 20
-5 9 -13 12 -15 7z"/>
<path d="M2375 2530 c-3 -5 -1 -10 4 -10 6 0 11 5 11 10 0 6 -2 10 -4 10 -3 0
-8 -4 -11 -10z"/>
<path d="M2273 2513 c-15 -5 -17 -39 -4 -48 5 -3 13 0 17 6 4 8 3 9 -4 5 -15
-9 -15 -1 -2 25 6 10 9 19 8 18 -2 0 -9 -3 -15 -6z"/>
<path d="M2341 2500 c0 -8 4 -22 9 -30 12 -18 12 -2 0 25 -6 13 -9 15 -9 5z"/>
<path d="M2658 2521 c-82 -38 -154 -119 -172 -191 -3 -14 3 -5 14 19 35 77 77
118 153 156 40 19 65 34 57 34 -8 0 -32 -8 -52 -18z"/>
<path d="M2819 2443 c18 -24 35 -43 38 -43 7 0 -34 55 -54 71 -10 8 -3 -5 16
-28z"/>
<path d="M2635 2450 c-3 -6 1 -7 9 -4 18 7 21 14 7 14 -6 0 -13 -4 -16 -10z"/>
<path d="M2575 2380 c-3 -5 -1 -10 4 -10 6 0 11 5 11 10 0 6 -2 10 -4 10 -3 0
-8 -4 -11 -10z"/>
<path d="M2779 2323 c-13 -16 -12 -17 4 -4 16 13 21 21 13 21 -2 0 -10 -8 -17
-17z"/>
<path d="M2480 2224 c0 -14 38 -64 64 -84 27 -20 59 -33 51 -20 -3 6 -10 10
-15 10 -17 0 -49 33 -43 43 3 6 1 7 -5 3 -7 -4 -20 6 -32 26 -11 18 -20 28
-20 22z"/>
<path d="M2655 2200 c3 -5 8 -10 11 -10 2 0 4 5 4 10 0 6 -5 10 -11 10 -5 0
-7 -4 -4 -10z"/>
<path d="M2704 2179 c-3 -5 -10 -7 -15 -4 -13 9 -11 -8 4 -28 11 -16 14 -16
35 -1 13 9 21 21 19 27 -4 13 -35 18 -43 6z"/>
<path d="M2957 2433 c10 -3 10 -10 1 -26 -11 -22 -11 -22 11 -3 16 15 18 21 9
28 -7 4 -17 7 -23 7 -5 0 -4 -3 2 -6z"/>
<path d="M2385 2053 c-11 -3 -24 -8 -28 -13 -8 -7 83 5 108 15 15 5 -56 4 -80
-2z"/>
<path d="M2114 2008 c-8 -27 10 -44 33 -32 17 8 17 10 -4 31 -22 21 -22 21
-29 1z"/>
<path d="M2171 1954 c0 -11 3 -14 6 -6 3 7 2 16 -1 19 -3 4 -6 -2 -5 -13z"/>
<path d="M2196 1921 c-5 -33 -2 -48 13 -69 10 -15 21 -36 24 -47 4 -16 5 -14
6 7 0 15 -3 30 -9 33 -5 3 -10 16 -10 28 0 18 -2 19 -10 7 -8 -12 -10 -11 -10
7 0 12 5 23 11 25 6 2 7 12 1 28 -8 22 -9 20 -16 -19z"/>
<path d="M2286 1910 c-4 -25 -14 -78 -22 -118 -15 -73 -15 -75 8 -108 13 -18
25 -29 27 -23 2 6 -6 20 -18 33 -21 22 -21 22 -1 126 12 57 19 111 17 120 -2
8 -7 -5 -11 -30z"/>
<path d="M2221 1653 c12 -21 29 -46 37 -55 11 -14 12 -26 3 -68 -15 -72 -12
-97 4 -30 15 61 28 160 17 120 -8 -24 -9 -23 -42 23 -40 56 -50 61 -19 10z"/>
<path d="M2670 2010 c-8 -5 -18 -6 -22 -4 -4 3 -8 -6 -8 -20 0 -16 7 -27 21
-31 27 -9 31 -3 27 34 -2 24 -6 28 -18 21z"/>
<path d="M2552 1950 c0 -19 2 -27 5 -17 2 9 2 25 0 35 -3 9 -5 1 -5 -18z"/>
<path d="M2484 1893 c2 -10 -1 -21 -6 -24 -5 -3 -13 -59 -20 -125 -6 -67 -17
-129 -25 -142 -24 -39 18 -72 47 -37 10 13 10 19 -4 34 -15 17 -16 30 -6 132
11 114 11 114 48 146 20 18 32 33 26 33 -6 0 -17 -7 -24 -15 -13 -16 -35 -21
-25 -6 3 5 1 12 -4 15 -5 4 -8 -2 -7 -11z m-4 -314 c0 -12 -29 -24 -37 -16 -3
4 -3 13 0 21 6 16 37 11 37 -5z"/>
<path d="M2581 1844 c0 -11 3 -14 6 -6 3 7 2 16 -1 19 -3 4 -6 -2 -5 -13z"/>
<path d="M2571 1754 c0 -11 3 -14 6 -6 3 7 2 16 -1 19 -3 4 -6 -2 -5 -13z"/>
<path d="M2582 1650 c0 -14 2 -19 5 -12 2 6 2 18 0 25 -3 6 -5 1 -5 -13z"/>
<path d="M2515 1609 c-4 -6 -5 -12 -2 -15 2 -3 7 2 10 11 7 17 1 20 -8 4z"/>
<path d="M2572 1585 c0 -16 2 -22 5 -12 2 9 2 23 0 30 -3 6 -5 -1 -5 -18z"/>
<path d="M2061 1623 c-1 -6 -4 -20 -7 -30 -5 -17 -5 -17 6 0 6 10 9 23 6 30
-3 9 -5 9 -5 0z"/>
<path d="M2200 3415 c0 -15 6 -25 15 -25 8 0 12 6 9 14 -3 8 0 17 7 22 8 5 10
3 4 -7 -7 -11 -6 -12 6 -2 12 9 96 13 315 16 299 2 299 2 -28 5 -328 2 -328 2
-328 -23z"/>
<path d="M2890 3432 c0 -5 -15 -14 -32 -19 -29 -10 -27 -10 18 -6 46 5 53 3
58 -15 4 -12 4 -37 1 -56 -8 -42 -18 -45 -157 -49 -65 -1 -112 -7 -119 -14 -6
-6 -12 -50 -13 -105 -3 -97 -11 -138 -27 -138 -5 0 -9 -8 -8 -17 0 -12 2 -13
6 -5 7 18 33 -4 33 -29 0 -11 3 -19 8 -19 4 0 6 70 5 155 -3 154 -3 154 145
157 147 3 147 3 147 83 0 80 0 80 -32 83 -18 2 -33 -1 -33 -6z"/>
<path d="M2200 3350 c0 -11 6 -20 14 -20 9 0 12 7 9 20 -3 11 -9 20 -14 20 -5
0 -9 -9 -9 -20z"/>
<path d="M2087 3323 c-4 -3 -6 -25 -6 -47 1 -23 3 -32 6 -21 2 11 6 30 8 42 3
12 13 24 23 26 14 4 13 5 -4 6 -11 0 -24 -2 -27 -6z"/>
<path d="M2202 3298 c3 -23 5 -23 133 -24 72 0 100 1 63 3 -38 2 -68 8 -68 13
0 5 -13 5 -29 0 -22 -6 -39 -3 -66 11 -37 20 -37 20 -33 -3z"/>
<path d="M2481 3108 c-1 -115 2 -148 12 -148 18 0 17 -162 0 -173 -7 -4 -13
-16 -13 -25 0 -14 4 -13 18 6 26 33 31 205 7 231 -14 17 -14 18 12 17 27 -1
28 -3 28 -48 -1 -27 2 -48 6 -48 4 0 7 26 7 58 -1 58 -1 58 -30 54 -19 -3 -28
0 -28 9 -1 8 -2 43 -4 79 -2 36 1 73 6 83 5 10 5 17 -1 17 -5 0 -12 8 -14 18
-3 9 -5 -49 -6 -130z"/>
<path d="M3127 3244 c-9 -10 2 -24 19 -24 8 0 14 7 14 15 0 15 -21 21 -33 9z"/>
<path d="M2325 3218 c-16 -6 -36 -12 -42 -14 -7 -2 -13 -9 -13 -16 0 -11 2
-11 8 0 5 7 15 10 24 7 8 -3 26 3 39 14 27 23 26 23 -16 9z"/>
<path d="M3022 3200 c-18 -17 -26 -30 -19 -30 7 0 26 14 42 30 37 39 20 38
-23 0z"/>
<path d="M2295 3120 c-10 -11 -15 -20 -11 -20 4 0 19 9 33 20 17 13 20 20 11
20 -8 0 -23 -9 -33 -20z"/>
<path d="M2571 2956 c-1 -111 2 -176 9 -176 11 0 9 335 -2 346 -4 3 -7 -73 -7
-170z"/>
<path d="M2612 3070 c0 -19 2 -27 5 -17 2 9 2 25 0 35 -3 9 -5 1 -5 -18z"/>
<path d="M2710 3030 c0 -13 20 -13 40 0 12 8 9 10 -12 10 -16 0 -28 -4 -28
-10z"/>
<path d="M2723 3003 c9 -2 23 -2 30 0 6 3 -1 5 -18 5 -16 0 -22 -2 -12 -5z"/>
<path d="M2629 2985 c-3 -5 -6 -26 -8 -45 -2 -30 1 -36 18 -36 22 0 27 15 12
32 -5 5 -11 20 -13 34 -2 14 -6 21 -9 15z"/>
<path d="M2721 2958 c-1 -36 12 -57 23 -39 4 5 2 12 -4 16 -6 4 -9 9 -6 13 2
4 0 16 -5 27 -6 16 -8 12 -8 -17z"/>
<path d="M2819 2957 c26 -28 31 -32 31 -19 0 4 -13 16 -28 26 -27 19 -27 19
-3 -7z"/>
<path d="M2422 2900 c2 -48 8 -46 14 4 2 20 0 36 -6 36 -5 0 -9 -18 -8 -40z"/>
<path d="M2602 2920 c0 -14 2 -19 5 -12 2 6 2 18 0 25 -3 6 -5 1 -5 -13z"/>
<path d="M2483 2865 c0 -38 2 -53 4 -32 2 20 2 52 0 70 -2 17 -4 1 -4 -38z"/>
<path d="M2380 2913 c0 -18 40 -107 45 -101 3 3 -6 29 -20 59 -14 30 -25 49
-25 42z"/>
<path d="M2543 2884 c-3 -8 -1 -20 6 -27 8 -8 11 -4 11 16 0 30 -7 35 -17 11z"/>
<path d="M2341 2865 c13 -36 73 -144 78 -140 3 3 -4 22 -14 43 -21 40 -70 114
-64 97z"/>
<path d="M2518 2765 c-36 -41 -50 -85 -28 -85 6 0 10 10 10 22 0 12 12 35 27
50 15 15 28 35 29 43 3 20 5 21 -38 -30z"/>
<path d="M2528 2733 c-3 -4 -8 -20 -12 -35 -5 -21 -3 -28 8 -28 15 0 29 51 16
63 -4 5 -10 5 -12 0z"/>
<path d="M2556 2695 c-4 -12 4 -15 49 -15 38 0 55 4 55 13 0 7 -9 13 -20 13
-11 0 -20 -4 -20 -8 0 -5 -10 -4 -21 3 -17 9 -20 8 -13 -3 6 -11 5 -11 -8 0
-13 10 -17 10 -22 -3z"/>
<path d="M2443 2619 c4 -13 7 -32 7 -41 0 -10 5 -18 10 -18 6 0 10 11 10 23 0
31 10 40 24 22 9 -12 17 -12 49 -2 20 7 37 15 37 19 0 3 -27 7 -60 7 -33 0
-65 3 -72 7 -8 5 -9 0 -5 -17z"/>
</g>
</svg>
